<svg width="113" height="113" viewBox="0 0 113 113" fill="none" xmlns="http://www.w3.org/2000/svg">
<g clip-path="url(#clip0_4294_12)">
<path d="M44.3985 60.9711L16 72.6363L32.5658 93.7794L60.9644 82.1142L44.3985 60.9711Z" fill="#561FB1"/>
<path d="M60.9643 82.1142L44.3985 60.9711L65.0213 52.2223C83.9536 43.4734 89.0248 41.2862 94.096 34.7245V48.9415C92.7437 60.9711 89.2502 68.2619 83.6156 71.5427L60.9643 82.1142Z" fill="#7B36EC"/>
<path d="M60.9645 82.1142L32.5659 93.7794C35.2705 97.7893 35.9467 98.5184 43.3844 107.267C49.2697 114.19 59.0487 113.586 63.6691 112.006L79.5587 105.809L60.9645 82.1142Z" fill="#936EFF"/>
<path d="M44.0605 24.153C58.9359 18.3204 83.2775 7.74887 93.0818 -0.999996C93.0818 -0.999996 94.8251 1.85041 96.4626 9.20701C98.491 18.3204 94.4341 25.2466 90.0391 29.621C86.5231 33.1206 82.0379 35.8181 78.5444 37.2763L37.637 54.045L22.0854 33.6309C25.8043 32.2943 35.4057 28.5274 44.0605 24.153Z" fill="#9E6CF0"/>
</g>
<defs>
<clipPath id="clip0_4294_12">
<rect width="113" height="113" fill="white"/>
</clipPath>
</defs>
</svg>
