<svg width="579" height="225" viewBox="0 0 579 225" fill="none" xmlns="http://www.w3.org/2000/svg">
<path d="M48.3665 120.545L0 140.412L28.2138 176.422L76.5802 156.555L48.3665 120.545Z" fill="#561FB1"/>
<path d="M76.5802 156.555L48.3665 120.545L83.4897 105.645C115.734 90.7441 124.371 87.019 133.008 75.8436V100.057C130.705 120.545 124.755 132.962 115.158 138.55L76.5802 156.555Z" fill="#7B36EC"/>
<path d="M76.5803 156.555L28.2139 176.422C32.8202 183.251 33.9718 184.493 46.6392 199.393C56.6626 211.184 73.3175 210.155 81.1867 207.464L108.249 196.91L76.5803 156.555Z" fill="#936EFF"/>
<path d="M47.7907 57.8389C73.1255 47.9052 114.582 29.9005 131.28 15C131.28 15 134.25 19.8546 137.038 32.3839C140.493 47.9052 133.584 59.7014 126.098 67.1517C120.11 73.1119 112.471 77.7062 106.521 80.1896L36.8507 108.749L10.3643 73.981C16.698 71.7046 33.0504 65.2891 47.7907 57.8389Z" fill="#9E6CF0"/>
<path d="M182.704 126.494C182.704 116.766 184.514 108.227 188.134 100.874C191.866 93.5222 196.9 87.8667 203.234 83.9078C209.568 79.949 216.637 77.9696 224.442 77.9696C231.115 77.9696 236.941 79.3269 241.917 82.0415C247.007 84.7562 250.91 88.3191 253.624 92.7304V79.3269H282.637V174H253.624V160.596C250.796 165.008 246.838 168.571 241.748 171.285C236.771 174 230.946 175.357 224.272 175.357C216.581 175.357 209.568 173.378 203.234 169.419C196.9 165.347 191.866 159.635 188.134 152.283C184.514 144.818 182.704 136.221 182.704 126.494ZM253.624 126.663C253.624 119.424 251.588 113.712 247.516 109.527C243.557 105.342 238.694 103.25 232.925 103.25C227.156 103.25 222.236 105.342 218.164 109.527C214.205 113.599 212.226 119.255 212.226 126.494C212.226 133.733 214.205 139.501 218.164 143.8C222.236 147.985 227.156 150.077 232.925 150.077C238.694 150.077 243.557 147.985 247.516 143.8C251.588 139.615 253.624 133.902 253.624 126.663ZM318.218 69.4863C313.128 69.4863 308.943 68.0159 305.662 65.075C302.495 62.021 300.912 58.2884 300.912 53.8771C300.912 49.3527 302.495 45.6201 305.662 42.6792C308.943 39.6253 313.128 38.0983 318.218 38.0983C323.194 38.0983 327.266 39.6253 330.433 42.6792C333.714 45.6201 335.354 49.3527 335.354 53.8771C335.354 58.2884 333.714 62.021 330.433 65.075C327.266 68.0159 323.194 69.4863 318.218 69.4863ZM332.639 79.3269V174H303.626V79.3269H332.639ZM382.677 95.1057C386.07 89.9027 390.312 85.8307 395.402 82.8899C400.492 79.8359 406.147 78.3089 412.368 78.3089V109.018H404.394C397.155 109.018 391.726 110.602 388.106 113.769C384.487 116.823 382.677 122.252 382.677 130.057V174H353.664V79.3269H382.677V95.1057ZM420.467 126.494C420.467 116.766 422.277 108.227 425.897 100.874C429.629 93.5222 434.663 87.8667 440.997 83.9078C447.331 79.949 454.4 77.9696 462.205 77.9696C468.878 77.9696 474.704 79.3269 479.68 82.0415C484.77 84.7562 488.673 88.3191 491.387 92.7304V79.3269H520.4V174H491.387V160.596C488.56 165.008 484.601 168.571 479.511 171.285C474.534 174 468.709 175.357 462.035 175.357C454.344 175.357 447.331 173.378 440.997 169.419C434.663 165.347 429.629 159.635 425.897 152.283C422.277 144.818 420.467 136.221 420.467 126.494ZM491.387 126.663C491.387 119.424 489.351 113.712 485.279 109.527C481.321 105.342 476.457 103.25 470.688 103.25C464.92 103.25 459.999 105.342 455.927 109.527C451.968 113.599 449.989 119.255 449.989 126.494C449.989 133.733 451.968 139.501 455.927 143.8C459.999 147.985 464.92 150.077 470.688 150.077C476.457 150.077 481.321 147.985 485.279 143.8C489.351 139.615 491.387 133.902 491.387 126.663ZM554.963 175.357C549.873 175.357 545.688 173.887 542.407 170.946C539.24 167.892 537.657 164.159 537.657 159.748C537.657 155.224 539.24 151.435 542.407 148.381C545.688 145.327 549.873 143.8 554.963 143.8C559.939 143.8 564.011 145.327 567.179 148.381C570.459 151.435 572.099 155.224 572.099 159.748C572.099 164.159 570.459 167.892 567.179 170.946C564.011 173.887 559.939 175.357 554.963 175.357Z" fill="white" fill-opacity="0.95"/>
</svg>
